<svg width="150" height="150" viewBox="0 0 150 150" fill="none" xmlns="http://www.w3.org/2000/svg">
<path d="M11 38C11 34.6863 13.6863 32 17 32H90C93.3137 32 96 34.6863 96 38V105C96 108.314 93.3137 111 90 111H17C13.6863 111 11 108.314 11 105V38Z" fill="#B2F0FB"/>
<path d="M99.1718 96.634C99.1662 101.377 97.2797 105.924 93.926 109.277C90.5723 112.631 86.0254 114.518 81.2826 114.523H25.3893C20.6465 114.518 16.0995 112.631 12.7458 109.277C9.39255 105.924 7.50607 101.378 7.50005 96.6358V46.8161C7.50607 42.0739 9.39255 37.5277 12.7458 34.1744C16.0991 30.8211 20.6453 28.9347 25.3875 28.9286H81.2874C86.0296 28.9347 90.5758 30.8211 93.9291 34.1744C97.2828 37.5281 99.1693 42.075 99.1749 46.8179L99.1718 96.634Z" stroke="#26A9E0" stroke-width="6.42857"/>
<path d="M136.868 95.5477L136.863 95.5452L109.436 81.9831V61.4631L136.863 47.9009L136.876 47.8943L136.89 47.8875C137.475 47.5911 138.128 47.4519 138.783 47.4836C139.439 47.5153 140.075 47.7168 140.629 48.0683L140.652 48.0829L140.676 48.0972C141.237 48.44 141.7 48.9224 142.02 49.4974C142.34 50.0724 142.505 50.7203 142.5 51.3782L142.5 51.3906V51.4031V92.0462C142.5 93.987 141.269 94.9816 140.652 95.3646C140.034 95.7482 138.598 96.4072 136.868 95.5477Z" fill="#B2F0FB" stroke="#26A9E0" stroke-width="6.42857"/>
</svg>
